<?xml version="1.0" encoding="UTF-8"?>
<svg xmlns="http://www.w3.org/2000/svg" xmlns:xlink="http://www.w3.org/1999/xlink" viewBox="0 0 279.73 227.81">
  <defs>
    <style>
      .cls-1 {
        fill: url(#linear-gradient-2);
      }

      .cls-2 {
        opacity: .7;
      }

      .cls-3 {
        fill: #fff;
      }

      .cls-4 {
        fill: url(#linear-gradient-41);
      }

      .cls-4, .cls-5, .cls-6, .cls-7, .cls-8, .cls-9 {
        mix-blend-mode: overlay;
      }

      .cls-10 {
        fill: url(#linear-gradient-17);
      }

      .cls-11 {
        fill: url(#linear-gradient-43);
      }

      .cls-12 {
        fill: url(#linear-gradient-18);
      }

      .cls-13 {
        fill: url(#linear-gradient-40);
      }

      .cls-5 {
        fill: url(#linear-gradient-15);
      }

      .cls-14 {
        fill: url(#linear-gradient-28);
      }

      .cls-15 {
        fill: url(#linear-gradient-14);
      }

      .cls-16 {
        fill: url(#linear-gradient-36);
      }

      .cls-17 {
        fill: url(#linear-gradient-20);
      }

      .cls-18 {
        fill: url(#linear-gradient-6);
      }

      .cls-19 {
        fill: url(#linear-gradient-53);
      }

      .cls-20 {
        isolation: isolate;
      }

      .cls-21 {
        opacity: .2;
      }

      .cls-22 {
        fill: url(#linear-gradient-35);
      }

      .cls-23 {
        stroke-linecap: round;
      }

      .cls-23, .cls-24 {
        fill: none;
        stroke: #fff;
        stroke-linejoin: round;
      }

      .cls-25 {
        fill: url(#linear-gradient-48);
      }

      .cls-26 {
        fill: url(#linear-gradient-32);
      }

      .cls-27 {
        fill: url(#linear-gradient-11);
      }

      .cls-6 {
        fill: url(#linear-gradient-52);
      }

      .cls-28 {
        fill: url(#linear-gradient-39);
      }

      .cls-29 {
        fill: url(#linear-gradient-10);
      }

      .cls-30 {
        opacity: .4;
      }

      .cls-31 {
        fill: url(#linear-gradient-49);
      }

      .cls-32 {
        fill: url(#linear-gradient-37);
      }

      .cls-33 {
        fill: url(#linear-gradient-16);
      }

      .cls-34 {
        fill: url(#linear-gradient-31);
      }

      .cls-35 {
        fill: url(#linear-gradient-21);
      }

      .cls-36 {
        fill: url(#linear-gradient-25);
      }

      .cls-7 {
        fill: url(#linear-gradient-42);
      }

      .cls-37 {
        fill: url(#linear-gradient-5);
      }

      .cls-38 {
        fill: url(#linear-gradient-45);
      }

      .cls-39 {
        fill: url(#linear-gradient-34);
      }

      .cls-40 {
        fill: #518c96;
      }

      .cls-41 {
        fill: url(#linear-gradient-7);
      }

      .cls-8 {
        fill: url(#linear-gradient-51);
      }

      .cls-9 {
        fill: url(#linear-gradient-50);
      }

      .cls-42 {
        fill: url(#linear-gradient-24);
      }

      .cls-43 {
        fill: url(#linear-gradient-9);
      }

      .cls-44 {
        fill: url(#linear-gradient-22);
      }

      .cls-45 {
        fill: url(#linear-gradient-3);
      }

      .cls-46 {
        fill: url(#linear-gradient);
      }

      .cls-47 {
        fill: url(#linear-gradient-27);
      }

      .cls-48 {
        fill: url(#linear-gradient-33);
      }

      .cls-49 {
        fill: url(#linear-gradient-38);
      }

      .cls-50 {
        fill: url(#linear-gradient-29);
      }

      .cls-51 {
        fill: url(#linear-gradient-30);
      }

      .cls-52 {
        fill: url(#linear-gradient-23);
      }

      .cls-53 {
        fill: url(#linear-gradient-19);
      }

      .cls-54 {
        fill: url(#linear-gradient-4);
      }

      .cls-55 {
        fill: url(#linear-gradient-8);
      }

      .cls-56 {
        fill: url(#linear-gradient-44);
      }

      .cls-57 {
        fill: url(#linear-gradient-47);
      }

      .cls-58 {
        fill: url(#linear-gradient-46);
      }

      .cls-59 {
        fill: url(#linear-gradient-12);
      }

      .cls-60 {
        fill: url(#linear-gradient-13);
      }

      .cls-61 {
        fill: url(#linear-gradient-26);
      }
    </style>
    <linearGradient id="linear-gradient" x1="113.95" y1="139.22" x2="223.88" y2="139.22" gradientUnits="userSpaceOnUse">
      <stop offset="0" stop-color="#596a87"/>
      <stop offset=".39" stop-color="#4e6283"/>
      <stop offset="1" stop-color="#36507a"/>
    </linearGradient>
    <linearGradient id="linear-gradient-2" x1="186.09" y1="167.11" y2="167.11" xlink:href="#linear-gradient"/>
    <linearGradient id="linear-gradient-3" y1="157.27" x2="186.09" y2="157.27" xlink:href="#linear-gradient"/>
    <linearGradient id="linear-gradient-4" x1="186.09" y1="160.73" x2="223.88" y2="160.73" gradientUnits="userSpaceOnUse">
      <stop offset="0" stop-color="#768cb3"/>
      <stop offset=".28" stop-color="#6b83ac"/>
      <stop offset=".76" stop-color="#506c9b"/>
      <stop offset="1" stop-color="#405f91"/>
    </linearGradient>
    <linearGradient id="linear-gradient-5" x1="113.95" y1="150.89" x2="186.09" y2="150.89" xlink:href="#linear-gradient-4"/>
    <linearGradient id="linear-gradient-6" x1="154.28" y1="44.09" x2="186.36" y2="151.68" gradientUnits="userSpaceOnUse">
      <stop offset="0" stop-color="#fff"/>
      <stop offset=".31" stop-color="#f4f4f7"/>
      <stop offset=".83" stop-color="#d9d9e3"/>
      <stop offset="1" stop-color="#cfd0dc"/>
    </linearGradient>
    <linearGradient id="linear-gradient-7" x1="149.3" y1="78.02" x2="190.07" y2="78.02" xlink:href="#linear-gradient"/>
    <linearGradient id="linear-gradient-8" x1="149.18" y1="119.28" x2="189.96" y2="119.28" xlink:href="#linear-gradient"/>
    <linearGradient id="linear-gradient-9" x1="149.2" y1="112.41" x2="189.98" y2="112.41" xlink:href="#linear-gradient"/>
    <linearGradient id="linear-gradient-10" x1="149.22" y1="105.53" x2="190" y2="105.53" xlink:href="#linear-gradient"/>
    <linearGradient id="linear-gradient-11" x1="149.24" y1="98.66" x2="190.01" y2="98.66" xlink:href="#linear-gradient"/>
    <linearGradient id="linear-gradient-12" x1="149.26" y1="91.77" x2="190.03" y2="91.77" xlink:href="#linear-gradient"/>
    <linearGradient id="linear-gradient-13" x1="149.28" y1="84.9" x2="190.05" y2="84.9" xlink:href="#linear-gradient"/>
    <linearGradient id="linear-gradient-14" x1="149.33" y1="63.89" x2="179.15" y2="63.89" xlink:href="#linear-gradient"/>
    <linearGradient id="linear-gradient-15" x1="168.91" y1="165.44" x2="168.91" y2="24.58" gradientUnits="userSpaceOnUse">
      <stop offset="0" stop-color="#a1f2ff"/>
      <stop offset="1" stop-color="#646dd9" stop-opacity="0"/>
    </linearGradient>
    <linearGradient id="linear-gradient-16" x1="211.77" y1="170.92" x2="229.24" y2="170.92" gradientUnits="userSpaceOnUse">
      <stop offset="0" stop-color="#fad60a"/>
      <stop offset="1" stop-color="#fa9343"/>
    </linearGradient>
    <linearGradient id="linear-gradient-17" x1="211.77" y1="171.53" x2="227.13" y2="171.53" gradientUnits="userSpaceOnUse">
      <stop offset="0" stop-color="#fa9343"/>
      <stop offset=".99" stop-color="#fa641e"/>
    </linearGradient>
    <linearGradient id="linear-gradient-18" x1="205.15" y1="174.78" x2="222.62" y2="174.78" xlink:href="#linear-gradient-16"/>
    <linearGradient id="linear-gradient-19" x1="205.14" y1="175.39" x2="220.5" y2="175.39" xlink:href="#linear-gradient-17"/>
    <linearGradient id="linear-gradient-20" x1="198.52" y1="178.63" x2="215.99" y2="178.63" xlink:href="#linear-gradient-16"/>
    <linearGradient id="linear-gradient-21" x1="198.52" y1="179.25" x2="213.88" y2="179.25" xlink:href="#linear-gradient-17"/>
    <linearGradient id="linear-gradient-22" x1="-1077.57" y1="160.21" x2="-1060.1" y2="160.21" gradientTransform="translate(-937.09) rotate(-180) scale(1 -1)" xlink:href="#linear-gradient-16"/>
    <linearGradient id="linear-gradient-23" x1="-1077.58" y1="160.83" x2="-1062.21" y2="160.83" gradientTransform="translate(-937.09) rotate(-180) scale(1 -1)" xlink:href="#linear-gradient-17"/>
    <linearGradient id="linear-gradient-24" x1="-1084.2" y1="164.07" x2="-1066.72" y2="164.07" gradientTransform="translate(-937.09) rotate(-180) scale(1 -1)" xlink:href="#linear-gradient-16"/>
    <linearGradient id="linear-gradient-25" x1="-1084.2" y1="164.69" x2="-1068.84" y2="164.69" gradientTransform="translate(-937.09) rotate(-180) scale(1 -1)" xlink:href="#linear-gradient-17"/>
    <linearGradient id="linear-gradient-26" x1="-1090.82" y1="167.93" x2="-1073.35" y2="167.93" gradientTransform="translate(-937.09) rotate(-180) scale(1 -1)" xlink:href="#linear-gradient-16"/>
    <linearGradient id="linear-gradient-27" x1="-1090.83" y1="168.55" x2="-1075.46" y2="168.55" gradientTransform="translate(-937.09) rotate(-180) scale(1 -1)" xlink:href="#linear-gradient-17"/>
    <linearGradient id="linear-gradient-28" x1="42.44" y1="191.41" x2="167.83" y2="191.41" xlink:href="#linear-gradient"/>
    <linearGradient id="linear-gradient-29" x1="86.32" y1="195.44" x2="111.93" y2="195.44" gradientUnits="userSpaceOnUse">
      <stop offset="0" stop-color="#a1f2ff"/>
      <stop offset="1" stop-color="#646dd9"/>
    </linearGradient>
    <linearGradient id="linear-gradient-30" x1="108.12" y1="207.03" x2="137.16" y2="207.03" xlink:href="#linear-gradient-29"/>
    <linearGradient id="linear-gradient-31" x1="64.52" y1="185.43" x2="81.27" y2="185.43" xlink:href="#linear-gradient-29"/>
    <linearGradient id="linear-gradient-32" x1="90.96" y1="203.92" x2="96.61" y2="203.92" gradientUnits="userSpaceOnUse">
      <stop offset="0" stop-color="#fa9343"/>
      <stop offset="1" stop-color="#e01f4d"/>
    </linearGradient>
    <linearGradient id="linear-gradient-33" x1="112.76" y1="210.39" x2="139.43" y2="210.39" xlink:href="#linear-gradient-32"/>
    <linearGradient id="linear-gradient-34" x1="69.16" y1="183.92" x2="100.33" y2="183.92" xlink:href="#linear-gradient-32"/>
    <linearGradient id="linear-gradient-35" x1="59.88" y1="180.92" x2="82.91" y2="180.92" gradientUnits="userSpaceOnUse">
      <stop offset="0" stop-color="#d0f04f"/>
      <stop offset="1" stop-color="#3ca845"/>
    </linearGradient>
    <linearGradient id="linear-gradient-36" x1="103.48" y1="208.72" x2="117.46" y2="208.72" xlink:href="#linear-gradient-35"/>
    <linearGradient id="linear-gradient-37" x1="81.68" y1="189.53" x2="118.39" y2="189.53" xlink:href="#linear-gradient-35"/>
    <linearGradient id="linear-gradient-38" x1="98.84" y1="208.47" x2="104.49" y2="208.47" xlink:href="#linear-gradient-16"/>
    <linearGradient id="linear-gradient-39" x1="77.04" y1="190.08" x2="102.66" y2="190.08" xlink:href="#linear-gradient-16"/>
    <linearGradient id="linear-gradient-40" x1="55.24" y1="180.07" x2="71.99" y2="180.07" xlink:href="#linear-gradient-16"/>
    <linearGradient id="linear-gradient-41" x1="105.13" y1="221.36" x2="105.13" y2="58.76" xlink:href="#linear-gradient-15"/>
    <linearGradient id="linear-gradient-42" x1="225.94" y1="170.42" x2="277.6" y2="76.42" xlink:href="#linear-gradient-15"/>
    <linearGradient id="linear-gradient-43" x1="213.72" y1="117.77" x2="244.61" y2="151.57" gradientUnits="userSpaceOnUse">
      <stop offset="0" stop-color="#ffea00"/>
      <stop offset="1" stop-color="#ffae00"/>
    </linearGradient>
    <linearGradient id="linear-gradient-44" x1="250.47" y1="156.21" x2="275.06" y2="156.21" xlink:href="#linear-gradient"/>
    <linearGradient id="linear-gradient-45" x1="250.45" y1="157.53" x2="264.52" y2="157.53" xlink:href="#linear-gradient"/>
    <linearGradient id="linear-gradient-46" x1="250.48" y1="151.86" x2="275.07" y2="151.86" xlink:href="#linear-gradient"/>
    <linearGradient id="linear-gradient-47" x1="268.45" y1="126.65" x2="279.62" y2="142.49" gradientUnits="userSpaceOnUse">
      <stop offset="0" stop-color="#fff"/>
      <stop offset=".26" stop-color="#f4f5f8"/>
      <stop offset=".71" stop-color="#d9dde8"/>
      <stop offset="1" stop-color="#c4cadc"/>
    </linearGradient>
    <linearGradient id="linear-gradient-48" x1="2085.17" y1="-432.99" x2="2150.17" y2="-397.33" gradientTransform="translate(-241.78 2131.91) rotate(-69.97)" gradientUnits="userSpaceOnUse">
      <stop offset="0" stop-color="#8c4fdb"/>
      <stop offset="1" stop-color="#ff454b"/>
    </linearGradient>
    <linearGradient id="linear-gradient-49" x1="0" y1="206.83" x2="18.07" y2="206.83" xlink:href="#linear-gradient-43"/>
    <linearGradient id="linear-gradient-50" x1="105.13" y1="84" x2="105.13" y2="99.25" xlink:href="#linear-gradient-15"/>
    <linearGradient id="linear-gradient-51" x1="105.13" y1="66.94" x2="105.13" y2="82.19" xlink:href="#linear-gradient-15"/>
    <linearGradient id="linear-gradient-52" x1="105.13" y1="49.88" x2="105.13" y2="65.13" xlink:href="#linear-gradient-15"/>
    <linearGradient id="linear-gradient-53" x1="190.45" y1="3.98" x2="196.45" y2="36.48" xlink:href="#linear-gradient-43"/>
  </defs>
  <g class="cls-20">
    <g id="Layer_2" data-name="Layer 2">
      <g id="OBJECTS">
        <g>
          <g>
            <g>
              <polygon class="cls-46" points="223.88 149.07 186.09 171.03 113.95 129.38 151.74 107.42 223.88 149.07"/>
              <polygon class="cls-1" points="186.09 171.03 186.09 185.15 223.88 163.19 223.88 149.07 186.09 171.03"/>
              <polygon class="cls-45" points="113.95 129.38 113.95 143.5 186.09 185.15 186.09 171.03 113.95 129.38"/>
              <polygon class="cls-54" points="186.09 172.4 223.88 150.44 223.88 149.07 186.09 171.03 186.09 172.4"/>
              <polygon class="cls-37" points="113.95 130.75 186.09 172.4 186.09 171.03 113.95 129.38 113.95 130.75"/>
            </g>
            <g>
              <path class="cls-18" d="m193.36,64.35l-48.66-28.09c-1.3-.75-2.36-.15-2.36,1.34l-.23,80.32c0,1.49,1.04,3.31,2.35,4.06l48.66,28.09c1.3.75,2.36.15,2.36-1.34l.23-80.32c0-1.49-1.04-3.31-2.35-4.06Z"/>
              <g>
                <path class="cls-41" d="m150.18,67.78l39.01,22.52c.49.28.88.06.89-.5,0-.56-.39-1.24-.88-1.52l-39.01-22.52c-.49-.28-.88-.06-.88.5,0,.56.39,1.24.88,1.52Z"/>
                <path class="cls-55" d="m189.08,129.53l-39.01-22.52c-.49-.28-.88-.06-.89.5,0,.56.39,1.24.88,1.52l39.01,22.52c.49.28.88.05.89-.5,0-.56-.39-1.24-.88-1.52Z"/>
                <path class="cls-43" d="m189.1,122.65l-39.01-22.52c-.49-.28-.88-.05-.89.5,0,.56.39,1.24.88,1.52l39.01,22.52c.49.28.88.06.89-.5,0-.56-.39-1.24-.88-1.52Z"/>
                <path class="cls-29" d="m189.11,115.78l-39.01-22.52c-.49-.28-.88-.06-.89.5,0,.56.39,1.24.88,1.52l39.01,22.52c.49.28.88.06.89-.5,0-.56-.39-1.24-.88-1.52Z"/>
                <path class="cls-27" d="m189.13,108.9l-39.01-22.52c-.49-.28-.88-.06-.89.5,0,.56.39,1.24.88,1.52l39.01,22.52c.49.28.88.06.89-.5,0-.56-.39-1.24-.88-1.52Z"/>
                <path class="cls-59" d="m189.15,102.02l-39.01-22.52c-.49-.28-.88-.05-.89.5,0,.56.39,1.24.88,1.53l39.01,22.52c.49.28.88.05.89-.5,0-.56-.39-1.24-.88-1.52Z"/>
                <path class="cls-60" d="m189.17,95.15l-39.01-22.52c-.49-.28-.88-.05-.89.5,0,.56.39,1.24.88,1.52l39.01,22.52c.49.28.88.06.89-.5,0-.56-.39-1.24-.88-1.52Z"/>
                <path class="cls-15" d="m150.21,56.8l28.06,16.2c.49.28.88.05.89-.5,0-.56-.39-1.24-.88-1.52l-28.06-16.2c-.49-.28-.88-.05-.89.5,0,.56.39,1.24.88,1.52Z"/>
              </g>
            </g>
            <polygon class="cls-5" points="113.95 129.38 186.09 171.03 223.88 149.07 223.88 6.04 113.95 6.04 113.95 129.38"/>
            <g class="cls-2">
              <polyline class="cls-23" points="195.61 115.15 223.88 131.47 186.09 153.44 113.95 111.79 142.21 95.36"/>
            </g>
            <g class="cls-30">
              <polyline class="cls-23" points="195.61 86.82 223.88 103.14 186.09 125.11 113.95 83.46 142.21 67.03"/>
            </g>
            <g class="cls-21">
              <polygon class="cls-24" points="223.88 77.58 186.09 99.55 113.95 57.9 151.74 35.93 223.88 77.58"/>
            </g>
            <g>
              <g class="cls-20">
                <path class="cls-33" d="m226.42,169.37l-12.53-7.24-2.11,1.23,12.53,7.24c1.56.9,2.83,3.1,2.83,4.89v4.21s2.1-1.23,2.1-1.23v-4.21c.02-1.8-1.25-3.99-2.81-4.89Z"/>
                <path class="cls-10" d="m224.3,170.6l-12.53-7.24v1.63s12.53,7.24,12.53,7.24c.78.45,1.41,1.55,1.41,2.45v4.21s1.41.82,1.41.82v-4.21c.02-1.8-1.25-3.99-2.81-4.89Z"/>
              </g>
              <g>
                <path class="cls-12" d="m219.79,173.23l-12.53-7.24-2.11,1.23,12.53,7.24c1.56.9,2.83,3.1,2.83,4.89v4.21s2.1-1.23,2.1-1.23v-4.21c.02-1.8-1.25-3.99-2.81-4.89Z"/>
                <path class="cls-53" d="m217.68,174.45l-12.53-7.24v1.63s12.53,7.24,12.53,7.24c.78.45,1.41,1.55,1.41,2.45v4.21s1.41.82,1.41.82v-4.21c.02-1.8-1.25-3.99-2.81-4.89Z"/>
              </g>
              <g class="cls-20">
                <path class="cls-17" d="m213.17,177.09l-12.53-7.24-2.11,1.23,12.53,7.24c1.56.9,2.83,3.1,2.83,4.89v4.21s2.1-1.23,2.1-1.23v-4.21c.02-1.8-1.25-3.99-2.81-4.89Z"/>
                <path class="cls-35" d="m211.05,178.31l-12.53-7.24v1.63s12.53,7.24,12.53,7.24c.78.45,1.41,1.55,1.41,2.45v4.21s1.41.82,1.41.82v-4.21c.02-1.8-1.25-3.99-2.81-4.89Z"/>
              </g>
            </g>
            <g>
              <g class="cls-20">
                <path class="cls-44" d="m125.83,158.66l12.53-7.24,2.11,1.23-12.53,7.24c-1.56.9-2.83,3.1-2.83,4.89v4.21s-2.1-1.23-2.1-1.23v-4.21c-.02-1.8,1.25-3.99,2.81-4.89Z"/>
                <path class="cls-52" d="m127.95,159.89l12.53-7.24v1.63s-12.53,7.24-12.53,7.24c-.78.45-1.42,1.55-1.41,2.45v4.21s-1.41.82-1.41.82v-4.21c-.02-1.8,1.25-3.99,2.81-4.89Z"/>
              </g>
              <g>
                <path class="cls-42" d="m132.46,162.52l12.53-7.24,2.11,1.23-12.53,7.24c-1.56.9-2.83,3.1-2.83,4.89v4.21s-2.1-1.23-2.1-1.23v-4.21c-.02-1.8,1.25-3.99,2.81-4.89Z"/>
                <path class="cls-36" d="m134.57,163.75l12.53-7.24v1.63s-12.53,7.24-12.53,7.24c-.78.45-1.42,1.55-1.41,2.45v4.21s-1.41.82-1.41.82v-4.21c-.02-1.8,1.25-3.99,2.81-4.89Z"/>
              </g>
              <g class="cls-20">
                <path class="cls-61" d="m139.08,166.38l12.53-7.24,2.11,1.23-12.53,7.24c-1.56.9-2.83,3.1-2.83,4.89v4.21s-2.1-1.23-2.1-1.23v-4.21c-.02-1.8,1.25-3.99,2.81-4.89Z"/>
                <path class="cls-47" d="m141.2,167.61l12.53-7.24v1.63s-12.53,7.24-12.53,7.24c-.78.45-1.42,1.55-1.41,2.45v4.21s-1.41.82-1.41.82v-4.21c-.02-1.8,1.25-3.99,2.81-4.89Z"/>
              </g>
            </g>
          </g>
          <g>
            <polygon class="cls-14" points="167.83 200.48 121.23 227.81 42.44 182.32 89.04 155 167.83 200.48"/>
            <g>
              <polygon class="cls-50" points="108.65 188 86.32 200.98 89.6 202.87 111.93 189.89 108.65 188"/>
              <polygon class="cls-51" points="133.87 198.6 108.12 213.57 111.4 215.46 137.16 200.49 133.87 198.6"/>
              <polygon class="cls-34" points="64.52 188.39 67.8 190.29 81.27 182.46 77.99 180.57 64.52 188.39"/>
            </g>
            <g>
              <polygon class="cls-26" points="90.96 203.66 94.24 205.55 96.61 204.18 93.33 202.28 90.96 203.66"/>
              <polygon class="cls-48" points="136.14 202.65 112.76 216.24 116.04 218.14 139.43 204.55 136.14 202.65"/>
              <polygon class="cls-39" points="69.16 191.07 72.44 192.97 100.33 176.76 97.05 174.87 69.16 191.07"/>
            </g>
            <g>
              <polygon class="cls-22" points="79.63 174.24 59.88 185.71 63.16 187.61 82.91 176.13 79.63 174.24"/>
              <polygon class="cls-16" points="103.48 210.89 106.76 212.78 117.46 206.56 114.18 204.67 103.48 210.89"/>
              <polygon class="cls-32" points="115.11 178.87 81.68 198.3 84.96 200.19 118.39 180.76 115.11 178.87"/>
            </g>
            <polygon class="cls-40" points="88.78 161.8 52.85 182.68 117.88 220.22 117.7 220.32 52.5 182.67 88.6 161.69 88.78 161.8"/>
            <g>
              <polygon class="cls-49" points="101.2 206.83 98.84 208.21 102.12 210.1 104.49 208.73 101.2 206.83"/>
              <polygon class="cls-28" points="99.37 182.64 77.04 195.62 80.32 197.52 102.66 184.54 99.37 182.64"/>
              <polygon class="cls-13" points="55.24 183.03 58.52 184.93 71.99 177.1 68.7 175.21 55.24 183.03"/>
            </g>
            <polygon class="cls-4" points="42.44 182.32 121.25 227.81 167.83 200.48 167.83 37.35 42.44 41.64 42.44 182.32"/>
          </g>
          <g>
            <path class="cls-7" d="m277.26,128.94l-68.58-39.59c-1.37-.79-2.48-.15-2.49,1.43v54.86c0,1.58,1.1,3.5,2.47,4.29l68.58,39.59c1.37.79,2.48.16,2.49-1.43v-54.87c0-1.57-1.1-3.5-2.47-4.29Z"/>
            <g>
              <path class="cls-11" d="m237.46,122.91l-8.36,11.66c-.08.12-.22.15-.49.05-.13-.08-.26-.2-.36-.36l-12.68-19.53c-2.2,1.96-3.52,5.26-3.53,9.68-.03,10.51,7.36,23.33,16.52,28.61,9.15,5.29,16.6,1.04,16.63-9.47.02-6.8-3.07-14.56-7.73-20.63Z"/>
              <path class="cls-3" d="m236.31,119.95c-2.33-2.79-4.99-5.15-7.82-6.78-4.91-2.83-9.33-2.92-12.37-.78l12.17,18.75,8.03-11.19Z"/>
            </g>
            <g>
              <polygon class="cls-56" points="250.47 150.28 275.06 164.47 275.06 162.15 250.47 147.95 250.47 150.28"/>
              <polygon class="cls-38" points="250.45 154.63 264.52 162.75 264.52 160.43 250.46 152.31 250.45 154.63"/>
              <polygon class="cls-58" points="250.49 143.6 250.48 145.92 275.07 160.12 275.07 157.8 250.49 143.6"/>
            </g>
            <path class="cls-57" d="m273.79,133.57l1.12-.64c.22-.12.22-.54,0-.92-.11-.2-.26-.34-.4-.43-.15-.09-.29-.11-.41-.04l-1.11.63-1.1-1.91c-.11-.2-.26-.34-.4-.43s-.29-.1-.4-.04c-.22.13-.22.55,0,.92l1.1,1.92-1.11.63c-.22.12-.22.54,0,.92.11.19.26.34.4.43.15.08.29.1.41.04l1.11-.63,1.1,1.91c.11.2.26.34.4.43.15.08.29.1.4.04.21-.13.22-.54,0-.92l-1.11-1.91Z"/>
          </g>
          <path class="cls-25" d="m94.4,17.45c-.28.77-.87,1.4-1.63,1.73l-20.63,8.88c-.98.42-2.12.29-2.98-.35-.86-.64-1.31-1.69-1.19-2.76l2.63-22.3c.12-1.06.81-1.98,1.79-2.4.98-.42,2.12-.29,2.98.35l18,13.42c.86.64,1.31,1.69,1.19,2.76-.03.23-.08.46-.16.68Zm-19.86,3.04l11.08-4.77-9.67-7.21-1.41,11.98Z"/>
          <path class="cls-31" d="m13.57,200.94l-3.21,1.67-1.67-3.21c-.77-1.47-2.58-2.04-4.05-1.27l-.22.12c-1.47.77-2.04,2.58-1.27,4.05l1.67,3.21-3.21,1.67c-1.47.77-2.04,2.58-1.27,4.05l.12.22c.77,1.47,2.58,2.04,4.05,1.27l3.21-1.67,1.67,3.21c.77,1.47,2.58,2.04,4.05,1.27l.22-.12c1.47-.77,2.04-2.58,1.27-4.05l-1.67-3.21,3.21-1.67c1.47-.77,2.04-2.58,1.27-4.05l-.12-.22c-.77-1.47-2.58-2.04-4.05-1.27Z"/>
          <path class="cls-3" d="m261.54,94.59l-3.07-5.32c-.27-.46-.62-.82-.96-1.02-.35-.2-.7-.25-.97-.1l-3.09,1.76c-.54.3-.54,1.3,0,2.22.27.46.62.82.97,1.02.35.2.7.25.97.1l.75-.43-.02,5.87c0,.86.61,1.92,1.36,2.36.76.44,1.37.09,1.37-.78l.02-5.87.75,1.29c.27.46.62.82.96,1.02.35.2.7.25.97.1.54-.31.54-1.3,0-2.22Z"/>
          <path class="cls-9" d="m109.19,87.48l-3.07-5.32c-.27-.46-.62-.82-.96-1.02-.35-.2-.7-.25-.97-.1l-3.09,1.76c-.54.3-.54,1.3,0,2.22.27.46.62.82.97,1.02.35.2.7.25.97.1l.75-.43-.02,5.87c0,.86.61,1.92,1.36,2.36.76.44,1.37.09,1.37-.78l.02-5.87.75,1.29c.27.46.62.82.96,1.02.35.2.7.25.97.1.54-.31.54-1.3,0-2.22Z"/>
          <path class="cls-8" d="m109.19,70.42l-3.07-5.32c-.27-.46-.62-.82-.96-1.02-.35-.2-.7-.25-.97-.1l-3.09,1.76c-.54.3-.54,1.3,0,2.22.27.46.62.82.97,1.02.35.2.7.25.97.1l.75-.43-.02,5.87c0,.86.61,1.92,1.36,2.36.76.44,1.37.09,1.37-.78l.02-5.87.75,1.29c.27.46.62.82.96,1.02.35.2.7.25.97.1.54-.31.54-1.3,0-2.22Z"/>
          <path class="cls-6" d="m109.19,53.36l-3.07-5.32c-.27-.46-.62-.82-.96-1.02-.35-.2-.7-.25-.97-.1l-3.09,1.76c-.54.3-.54,1.3,0,2.22.27.46.62.82.97,1.02.35.2.7.25.97.1l.75-.43-.02,5.87c0,.86.61,1.92,1.36,2.36.76.44,1.37.09,1.37-.78l.02-5.87.75,1.29c.27.46.62.82.96,1.02.35.2.7.25.97.1.54-.31.54-1.3,0-2.22Z"/>
          <path class="cls-19" d="m201.3,22.51c-.52-.89-1.2-1.58-1.87-1.98-.68-.39-1.36-.49-1.88-.19l-1.46.84.03-11.4c0-1.69-1.18-3.74-2.65-4.58-1.46-.84-2.66-.17-2.66,1.52l-.03,11.4-1.45-2.52c-.52-.9-1.2-1.59-1.87-1.98-.68-.39-1.36-.49-1.88-.19-1.04.59-1.05,2.52-.01,4.32l5.97,10.34c.52.9,1.2,1.59,1.88,1.98.68.39,1.36.49,1.88.19l6.01-3.42c1.04-.59,1.04-2.52.01-4.32Z"/>
        </g>
      </g>
    </g>
  </g>
</svg>